<svg xmlns="http://www.w3.org/2000/svg" xmlns:xlink="http://www.w3.org/1999/xlink" width="100" zoomAndPan="magnify" viewBox="0 0 75 74.999997" height="100" preserveAspectRatio="xMidYMid meet" version="1.0"><defs><clipPath id="cc489d696f"><path d="M 43 5.648438 L 73.539062 5.648438 L 73.539062 36 L 43 36 Z M 43 5.648438 " clip-rule="nonzero"/></clipPath><clipPath id="ca66a05fd9"><path d="M 1.539062 63 L 53 63 L 53 71.648438 L 1.539062 71.648438 Z M 1.539062 63 " clip-rule="nonzero"/></clipPath><clipPath id="159f12492c"><path d="M 46 60 L 72 60 L 72 71.648438 L 46 71.648438 Z M 46 60 " clip-rule="nonzero"/></clipPath></defs><path fill="#1a76d1" d="M 58.703125 27.363281 C 56.59375 27.363281 54.878906 25.648438 54.878906 23.539062 C 54.878906 23.089844 55.242188 22.726562 55.695312 22.726562 C 56.144531 22.726562 56.507812 23.089844 56.507812 23.539062 C 56.507812 24.75 57.492188 25.734375 58.703125 25.734375 C 59.914062 25.734375 60.898438 24.75 60.898438 23.539062 C 60.898438 22.332031 59.914062 21.347656 58.703125 21.347656 C 56.59375 21.347656 54.878906 19.628906 54.878906 17.523438 C 54.878906 15.414062 56.59375 13.699219 58.703125 13.699219 C 60.8125 13.699219 62.527344 15.414062 62.527344 17.523438 C 62.527344 17.972656 62.160156 18.335938 61.710938 18.335938 C 61.261719 18.335938 60.898438 17.972656 60.898438 17.523438 C 60.898438 16.3125 59.914062 15.328125 58.703125 15.328125 C 57.492188 15.328125 56.507812 16.3125 56.507812 17.523438 C 56.507812 18.734375 57.492188 19.714844 58.703125 19.714844 C 60.8125 19.714844 62.527344 21.433594 62.527344 23.539062 C 62.527344 25.648438 60.8125 27.363281 58.703125 27.363281 Z M 58.703125 27.363281 " fill-opacity="1" fill-rule="nonzero"/><path fill="#1a76d1" d="M 58.703125 28.304688 C 58.253906 28.304688 57.886719 27.941406 57.886719 27.488281 L 57.886719 13.574219 C 57.886719 13.125 58.253906 12.757812 58.703125 12.757812 C 59.152344 12.757812 59.519531 13.125 59.519531 13.574219 L 59.519531 27.488281 C 59.519531 27.941406 59.152344 28.304688 58.703125 28.304688 Z M 58.703125 28.304688 " fill-opacity="1" fill-rule="nonzero"/><path fill="#1a76d1" d="M 58.703125 31.863281 C 52.453125 31.863281 47.371094 26.78125 47.371094 20.53125 C 47.371094 14.28125 52.453125 9.199219 58.703125 9.199219 C 64.953125 9.199219 70.035156 14.28125 70.035156 20.53125 C 70.035156 26.78125 64.953125 31.863281 58.703125 31.863281 Z M 58.703125 10.828125 C 53.351562 10.828125 49 15.179688 49 20.53125 C 49 25.882812 53.351562 30.234375 58.703125 30.234375 C 64.054688 30.234375 68.40625 25.882812 68.40625 20.53125 C 68.40625 15.179688 64.054688 10.828125 58.703125 10.828125 Z M 58.703125 10.828125 " fill-opacity="1" fill-rule="nonzero"/><g clip-path="url(#cc489d696f)"><path fill="#1a76d1" d="M 58.703125 35.417969 C 50.496094 35.417969 43.816406 28.738281 43.816406 20.53125 C 43.816406 12.324219 50.496094 5.644531 58.703125 5.644531 C 66.910156 5.644531 73.589844 12.324219 73.589844 20.53125 C 73.589844 28.738281 66.910156 35.417969 58.703125 35.417969 Z M 58.703125 7.273438 C 51.394531 7.273438 45.449219 13.222656 45.449219 20.53125 C 45.449219 27.839844 51.394531 33.785156 58.703125 33.785156 C 66.011719 33.785156 71.957031 27.839844 71.957031 20.53125 C 71.957031 13.222656 66.011719 7.273438 58.703125 7.273438 Z M 58.703125 7.273438 " fill-opacity="1" fill-rule="nonzero"/></g><g clip-path="url(#ca66a05fd9)"><path fill="#1a76d1" d="M 51.382812 71.519531 L 5.597656 71.519531 C 3.378906 71.519531 1.574219 69.714844 1.574219 67.496094 C 1.574219 65.277344 3.378906 63.472656 5.597656 63.472656 L 47.296875 63.472656 C 47.746094 63.472656 48.109375 63.839844 48.109375 64.289062 C 48.109375 64.738281 47.746094 65.101562 47.296875 65.101562 L 5.597656 65.101562 C 4.277344 65.101562 3.203125 66.175781 3.203125 67.496094 C 3.203125 68.816406 4.277344 69.890625 5.597656 69.890625 L 51.382812 69.890625 C 51.835938 69.890625 52.199219 70.253906 52.199219 70.703125 C 52.199219 71.152344 51.835938 71.519531 51.382812 71.519531 Z M 51.382812 71.519531 " fill-opacity="1" fill-rule="nonzero"/></g><path fill="#1a76d1" d="M 47.292969 65.101562 L 5.511719 65.101562 C 5.0625 65.101562 4.695312 64.738281 4.695312 64.289062 L 4.695312 50.253906 C 4.695312 40.695312 12.476562 32.914062 22.039062 32.914062 L 36.59375 32.914062 C 40.625 32.914062 44.558594 34.34375 47.667969 36.9375 C 48.015625 37.226562 48.0625 37.738281 47.773438 38.082031 C 47.484375 38.429688 46.972656 38.476562 46.625 38.1875 C 43.808594 35.839844 40.246094 34.542969 36.59375 34.542969 L 22.039062 34.542969 C 13.375 34.542969 6.324219 41.589844 6.324219 50.253906 L 6.324219 63.472656 L 47.296875 63.472656 C 47.746094 63.472656 48.109375 63.839844 48.109375 64.289062 C 48.109375 64.738281 47.746094 65.101562 47.292969 65.101562 Z M 47.292969 65.101562 " fill-opacity="1" fill-rule="nonzero"/><path fill="#1a76d1" d="M 37.148438 34.542969 C 36.699219 34.542969 36.332031 34.179688 36.332031 33.726562 C 36.332031 33.277344 36.699219 32.914062 37.148438 32.914062 C 37.871094 32.914062 38.457031 32.324219 38.457031 31.605469 C 38.457031 30.882812 37.871094 30.292969 37.148438 30.292969 C 36.699219 30.292969 36.332031 29.929688 36.332031 29.480469 C 36.332031 29.03125 36.699219 28.664062 37.148438 28.664062 C 38.769531 28.664062 40.085938 29.984375 40.085938 31.605469 C 40.085938 33.226562 38.765625 34.542969 37.148438 34.542969 Z M 21.484375 34.542969 C 19.863281 34.542969 18.546875 33.226562 18.546875 31.605469 C 18.546875 29.984375 19.863281 28.664062 21.484375 28.664062 C 21.933594 28.664062 22.296875 29.03125 22.296875 29.480469 C 22.296875 29.929688 21.933594 30.292969 21.484375 30.292969 C 20.761719 30.292969 20.175781 30.882812 20.175781 31.605469 C 20.175781 32.324219 20.761719 32.914062 21.484375 32.914062 C 21.933594 32.914062 22.296875 33.277344 22.296875 33.726562 C 22.296875 34.179688 21.933594 34.542969 21.484375 34.542969 Z M 21.484375 34.542969 " fill-opacity="1" fill-rule="nonzero"/><path fill="#1a76d1" d="M 37.148438 30.292969 L 21.484375 30.292969 C 19.863281 30.292969 18.546875 28.976562 18.546875 27.355469 C 18.546875 25.734375 19.863281 24.414062 21.484375 24.414062 L 37.148438 24.414062 C 38.769531 24.414062 40.085938 25.734375 40.085938 27.355469 C 40.085938 28.976562 38.765625 30.292969 37.148438 30.292969 Z M 21.484375 26.046875 C 20.761719 26.046875 20.175781 26.632812 20.175781 27.355469 C 20.175781 28.078125 20.761719 28.667969 21.484375 28.667969 L 37.148438 28.667969 C 37.871094 28.667969 38.457031 28.078125 38.457031 27.355469 C 38.457031 26.632812 37.871094 26.046875 37.148438 26.046875 Z M 21.484375 26.046875 " fill-opacity="1" fill-rule="nonzero"/><path fill="#1a76d1" d="M 36.851562 26.046875 C 36.773438 26.046875 36.695312 26.035156 36.621094 26.011719 C 36.1875 25.882812 35.941406 25.429688 36.070312 25 L 38.59375 16.503906 C 38.738281 16.011719 38.628906 15.515625 38.273438 15.035156 C 37.683594 14.246094 36.554688 13.695312 35.523438 13.695312 L 23.109375 13.695312 C 22.078125 13.695312 20.949219 14.246094 20.359375 15.035156 C 20 15.515625 19.890625 16.011719 20.039062 16.503906 L 22.5625 25 C 22.691406 25.429688 22.445312 25.882812 22.011719 26.011719 C 21.582031 26.140625 21.128906 25.894531 21 25.464844 L 18.476562 16.964844 C 18.183594 15.984375 18.390625 14.953125 19.054688 14.0625 C 19.945312 12.867188 21.574219 12.066406 23.109375 12.066406 L 35.523438 12.066406 C 37.058594 12.066406 38.6875 12.867188 39.578125 14.0625 C 40.242188 14.953125 40.445312 15.984375 40.152344 16.964844 L 37.632812 25.464844 C 37.527344 25.816406 37.203125 26.046875 36.851562 26.046875 Z M 36.851562 26.046875 " fill-opacity="1" fill-rule="nonzero"/><path fill="#1a76d1" d="M 26.769531 26.046875 C 26.324219 26.046875 25.960938 25.691406 25.953125 25.242188 C 25.910156 22.28125 23.734375 19.796875 23.710938 19.773438 C 23.414062 19.4375 23.441406 18.921875 23.78125 18.621094 C 24.117188 18.320312 24.628906 18.351562 24.929688 18.691406 C 25.035156 18.808594 27.53125 21.660156 27.582031 25.21875 C 27.589844 25.671875 27.230469 26.039062 26.777344 26.046875 C 26.777344 26.046875 26.773438 26.046875 26.769531 26.046875 Z M 26.769531 26.046875 " fill-opacity="1" fill-rule="nonzero"/><path fill="#1a76d1" d="M 31.863281 26.046875 C 31.859375 26.046875 31.855469 26.046875 31.851562 26.046875 C 31.402344 26.039062 31.042969 25.671875 31.050781 25.21875 C 31.101562 21.65625 33.597656 18.808594 33.703125 18.691406 C 34 18.355469 34.515625 18.324219 34.851562 18.621094 C 35.1875 18.921875 35.21875 19.433594 34.921875 19.769531 C 34.898438 19.796875 32.71875 22.296875 32.675781 25.242188 C 32.671875 25.6875 32.308594 26.046875 31.863281 26.046875 Z M 31.863281 26.046875 " fill-opacity="1" fill-rule="nonzero"/><path fill="#1a76d1" d="M 29.316406 56.140625 C 27.125 56.140625 25.34375 54.355469 25.34375 52.167969 C 25.34375 51.71875 25.707031 51.351562 26.160156 51.351562 C 26.609375 51.351562 26.972656 51.71875 26.972656 52.167969 C 26.972656 53.457031 28.023438 54.507812 29.316406 54.507812 C 30.609375 54.507812 31.660156 53.457031 31.660156 52.167969 C 31.660156 50.875 30.609375 49.824219 29.316406 49.824219 C 27.125 49.824219 25.34375 48.042969 25.34375 45.851562 C 25.34375 43.660156 27.125 41.878906 29.316406 41.878906 C 31.503906 41.878906 33.289062 43.660156 33.289062 45.851562 C 33.289062 46.300781 32.921875 46.667969 32.472656 46.667969 C 32.023438 46.667969 31.660156 46.300781 31.660156 45.851562 C 31.660156 44.558594 30.609375 43.507812 29.316406 43.507812 C 28.023438 43.507812 26.972656 44.558594 26.972656 45.851562 C 26.972656 47.144531 28.023438 48.195312 29.316406 48.195312 C 31.503906 48.195312 33.289062 49.976562 33.289062 52.167969 C 33.289062 54.355469 31.503906 56.140625 29.316406 56.140625 Z M 29.316406 56.140625 " fill-opacity="1" fill-rule="nonzero"/><path fill="#1a76d1" d="M 29.316406 57.125 C 28.867188 57.125 28.5 56.757812 28.5 56.308594 L 28.5 41.707031 C 28.5 41.257812 28.867188 40.890625 29.316406 40.890625 C 29.765625 40.890625 30.128906 41.257812 30.128906 41.707031 L 30.128906 56.308594 C 30.128906 56.757812 29.765625 57.125 29.316406 57.125 Z M 29.316406 57.125 " fill-opacity="1" fill-rule="nonzero"/><path fill="#1a76d1" d="M 29.316406 60.859375 C 22.78125 60.859375 17.464844 55.542969 17.464844 49.007812 C 17.464844 42.472656 22.78125 37.15625 29.316406 37.15625 C 35.851562 37.15625 41.167969 42.472656 41.167969 49.007812 C 41.167969 55.546875 35.851562 60.859375 29.316406 60.859375 Z M 29.316406 38.785156 C 23.679688 38.785156 19.09375 43.371094 19.09375 49.007812 C 19.09375 54.648438 23.679688 59.230469 29.316406 59.230469 C 34.953125 59.230469 39.539062 54.644531 39.539062 49.007812 C 39.539062 43.375 34.953125 38.785156 29.316406 38.785156 Z M 29.316406 38.785156 " fill-opacity="1" fill-rule="nonzero"/><g clip-path="url(#159f12492c)"><path fill="#1a76d1" d="M 66.023438 71.519531 L 51.382812 71.519531 C 48.445312 71.519531 46.058594 69.128906 46.058594 66.191406 C 46.058594 63.253906 48.445312 60.863281 51.382812 60.863281 C 51.835938 60.863281 52.199219 61.230469 52.199219 61.679688 C 52.199219 62.128906 51.835938 62.492188 51.382812 62.492188 C 49.34375 62.492188 47.6875 64.152344 47.6875 66.191406 C 47.6875 68.230469 49.34375 69.890625 51.382812 69.890625 L 66.023438 69.890625 C 68.0625 69.890625 69.71875 68.230469 69.71875 66.191406 C 69.71875 64.152344 68.0625 62.492188 66.023438 62.492188 C 65.570312 62.492188 65.207031 62.128906 65.207031 61.679688 C 65.207031 61.230469 65.570312 60.863281 66.023438 60.863281 C 68.960938 60.863281 71.347656 63.253906 71.347656 66.191406 C 71.347656 69.128906 68.960938 71.519531 66.023438 71.519531 Z M 66.023438 71.519531 " fill-opacity="1" fill-rule="nonzero"/></g><path fill="#1a76d1" d="M 66.023438 62.492188 L 51.382812 62.492188 C 48.445312 62.492188 46.058594 60.101562 46.058594 57.164062 C 46.058594 54.226562 48.445312 51.835938 51.382812 51.835938 L 66.023438 51.835938 C 68.960938 51.835938 71.347656 54.226562 71.347656 57.164062 C 71.347656 60.101562 68.960938 62.492188 66.023438 62.492188 Z M 51.382812 53.46875 C 49.34375 53.46875 47.683594 55.125 47.683594 57.164062 C 47.683594 59.207031 49.34375 60.863281 51.382812 60.863281 L 66.019531 60.863281 C 68.058594 60.863281 69.71875 59.207031 69.71875 57.164062 C 69.71875 55.125 68.058594 53.46875 66.019531 53.46875 Z M 51.382812 53.46875 " fill-opacity="1" fill-rule="nonzero"/><path fill="#1a76d1" d="M 66.023438 53.46875 C 65.570312 53.46875 65.207031 53.101562 65.207031 52.652344 C 65.207031 52.203125 65.570312 51.835938 66.023438 51.835938 C 68.0625 51.835938 69.71875 50.179688 69.71875 48.140625 C 69.71875 46.097656 68.0625 44.441406 66.023438 44.441406 C 65.570312 44.441406 65.207031 44.074219 65.207031 43.625 C 65.207031 43.175781 65.570312 42.8125 66.023438 42.8125 C 68.960938 42.8125 71.347656 45.203125 71.347656 48.140625 C 71.347656 51.078125 68.960938 53.46875 66.023438 53.46875 Z M 51.382812 53.46875 C 48.445312 53.46875 46.054688 51.078125 46.054688 48.140625 C 46.054688 45.203125 48.445312 42.8125 51.382812 42.8125 C 51.832031 42.8125 52.199219 43.175781 52.199219 43.625 C 52.199219 44.074219 51.832031 44.441406 51.382812 44.441406 C 49.34375 44.441406 47.683594 46.097656 47.683594 48.140625 C 47.683594 50.179688 49.34375 51.835938 51.382812 51.835938 C 51.832031 51.835938 52.199219 52.203125 52.199219 52.652344 C 52.199219 53.101562 51.835938 53.46875 51.382812 53.46875 Z M 51.382812 53.46875 " fill-opacity="1" fill-rule="nonzero"/><path fill="#1a76d1" d="M 66.023438 44.441406 L 51.382812 44.441406 C 48.445312 44.441406 46.058594 42.050781 46.058594 39.113281 C 46.058594 36.175781 48.445312 33.785156 51.382812 33.785156 L 66.023438 33.785156 C 68.960938 33.785156 71.347656 36.175781 71.347656 39.113281 C 71.347656 42.050781 68.960938 44.441406 66.023438 44.441406 Z M 51.382812 35.417969 C 49.34375 35.417969 47.683594 37.074219 47.683594 39.113281 C 47.683594 41.15625 49.34375 42.8125 51.382812 42.8125 L 66.019531 42.8125 C 68.058594 42.8125 69.71875 41.15625 69.71875 39.113281 C 69.71875 37.074219 68.058594 35.417969 66.019531 35.417969 Z M 51.382812 35.417969 " fill-opacity="1" fill-rule="nonzero"/></svg>