<svg xmlns="http://www.w3.org/2000/svg" xmlns:xlink="http://www.w3.org/1999/xlink" width="100" zoomAndPan="magnify" viewBox="0 0 75 74.999997" height="100" preserveAspectRatio="xMidYMid meet" version="1.0"><defs><clipPath id="5ee4789c57"><path d="M 3.75 4 L 71.25 4 L 71.25 71.703125 L 3.75 71.703125 Z M 3.75 4 " clip-rule="nonzero"/></clipPath></defs><g clip-path="url(#5ee4789c57)"><path fill="#1a76d1" d="M 16.8125 64.136719 C 16.8125 63.441406 17.492188 62.957031 18.144531 63.164062 C 17.375 62.847656 16.8125 62.265625 16.8125 60.945312 C 16.8125 59.796875 17.621094 58.863281 18.679688 58.5 L 18.679688 58.015625 C 18.679688 57.457031 19.136719 56.996094 19.695312 56.996094 C 20.257812 56.996094 20.714844 57.457031 20.714844 58.015625 L 20.714844 58.5 C 21.777344 58.863281 22.578125 59.796875 22.578125 60.945312 C 22.578125 61.640625 21.90625 62.121094 21.253906 61.914062 C 22.015625 62.238281 22.578125 62.820312 22.578125 64.136719 C 22.578125 65.289062 21.773438 66.222656 20.714844 66.585938 L 20.714844 67.066406 C 20.714844 67.632812 20.257812 68.085938 19.695312 68.085938 C 19.136719 68.085938 18.679688 67.632812 18.679688 67.066406 L 18.679688 66.585938 C 17.621094 66.222656 16.8125 65.289062 16.8125 64.136719 Z M 18.269531 63.21875 C 18.613281 63.382812 18.847656 63.734375 18.847656 64.136719 C 18.847656 64.652344 19.832031 64.949219 20.359375 64.492188 C 20.472656 64.394531 20.546875 64.265625 20.546875 64.136719 C 20.546875 63.554688 19.1875 63.5625 18.269531 63.21875 Z M 19.898438 61.550781 C 20.320312 61.636719 20.746094 61.722656 21.125 61.863281 C 20.78125 61.699219 20.546875 61.351562 20.546875 60.945312 C 20.546875 60.433594 19.566406 60.136719 19.035156 60.585938 C 18.921875 60.6875 18.847656 60.816406 18.847656 60.945312 C 18.847656 61.332031 19.375 61.4375 19.898438 61.550781 Z M 4.769531 53.558594 L 6.96875 53.558594 L 6.96875 51.015625 C 6.96875 50.457031 7.425781 50 7.984375 50 L 10.300781 50 C 10.390625 40.320312 15.660156 30.074219 22.164062 23.21875 C 21.597656 22.632812 21.253906 21.835938 21.253906 20.957031 L 21.253906 20.226562 C 21.253906 18.835938 22.128906 17.617188 23.394531 17.152344 C 23.015625 14.796875 22.097656 12.675781 20.664062 10.742188 C 20.648438 10.71875 20.632812 10.699219 20.621094 10.679688 L 20.617188 10.683594 C 18.121094 6.75 21.949219 3.554688 25.164062 6.15625 C 25.628906 6.535156 26.316406 6.445312 26.667969 5.933594 C 28.339844 3.480469 31.109375 3.484375 32.773438 5.933594 C 33.125 6.445312 33.8125 6.535156 34.28125 6.15625 C 37.496094 3.554688 41.320312 6.753906 38.824219 10.683594 C 38.800781 10.71875 38.769531 10.761719 38.738281 10.792969 C 37.9375 11.882812 37.304688 13.027344 36.835938 14.226562 C 36.472656 15.164062 36.210938 16.136719 36.046875 17.152344 C 37.3125 17.617188 38.191406 18.835938 38.191406 20.226562 L 38.191406 20.957031 C 38.191406 21.835938 37.84375 22.636719 37.277344 23.21875 C 41.417969 27.578125 45.007812 33.265625 47.117188 39.230469 C 48.460938 38.460938 49.914062 37.886719 51.4375 37.527344 L 51.4375 35.875 C 50.863281 35.875 50.40625 35.890625 49.933594 35.414062 C 49.652344 35.132812 49.480469 34.746094 49.480469 34.316406 L 49.480469 31.804688 C 49.480469 31.378906 49.65625 30.980469 49.9375 30.707031 L 49.933594 30.703125 C 50.21875 30.421875 50.605469 30.246094 51.035156 30.246094 L 59.226562 30.246094 C 59.648438 30.246094 60.050781 30.421875 60.328125 30.707031 L 60.328125 30.703125 C 60.605469 30.984375 60.785156 31.375 60.785156 31.804688 L 60.785156 34.316406 C 60.785156 35.171875 60.078125 35.871094 59.226562 35.871094 L 58.828125 35.871094 L 58.828125 37.523438 C 66.019531 39.207031 71.253906 45.660156 71.253906 53.222656 C 71.253906 62.125 64.035156 69.34375 55.132812 69.34375 C 47.921875 69.34375 41.648438 64.558594 39.660156 57.742188 C 39.398438 57.804688 39.132812 57.863281 38.863281 57.914062 L 38.863281 66.945312 C 38.863281 67.511719 38.410156 67.964844 37.847656 67.964844 L 35.648438 67.964844 L 35.648438 70.503906 C 35.648438 71.070312 35.191406 71.523438 34.628906 71.523438 L 4.769531 71.523438 C 4.207031 71.523438 3.75 71.070312 3.75 70.503906 L 3.75 54.574219 C 3.75 54.015625 4.207031 53.558594 4.769531 53.558594 Z M 9.003906 53.558594 L 34.625 53.558594 C 35.1875 53.558594 35.644531 54.015625 35.644531 54.578125 L 35.644531 65.933594 L 36.824219 65.933594 L 36.824219 52.035156 L 9.003906 52.035156 Z M 33.605469 55.59375 L 5.789062 55.59375 L 5.789062 69.492188 L 33.605469 69.492188 Z M 12.335938 50 L 20.929688 50 C 17.003906 45.421875 17.246094 38.570312 21.535156 34.28125 C 26.054688 29.761719 33.382812 29.761719 37.902344 34.28125 C 42.246094 38.625 42.429688 45.582031 38.378906 50.148438 C 38.664062 50.328125 38.859375 50.648438 38.859375 51.015625 L 38.859375 55.84375 C 41.53125 55.257812 47.105469 53.601562 47.105469 50.257812 C 47.105469 40.851562 41.796875 30.734375 35.394531 24.195312 C 35.238281 24.21875 35.078125 24.230469 34.914062 24.230469 L 24.527344 24.230469 C 24.363281 24.230469 24.199219 24.21875 24.042969 24.195312 C 17.699219 30.679688 12.433594 40.667969 12.335938 50 Z M 23.867188 50 L 35.574219 50 C 36.675781 49.140625 37.582031 48.050781 38.222656 46.796875 C 40.101562 43.109375 39.371094 38.632812 36.464844 35.726562 C 32.738281 31.996094 26.699219 31.996094 22.976562 35.726562 C 18.910156 39.792969 19.347656 46.480469 23.867188 50 Z M 26.199219 44.515625 C 26.199219 43.949219 26.660156 43.496094 27.21875 43.496094 C 27.785156 43.496094 28.238281 43.949219 28.238281 44.515625 C 28.238281 45.3125 29.621094 45.742188 30.378906 45.097656 C 30.5625 44.9375 30.675781 44.734375 30.675781 44.515625 C 30.675781 42.90625 26.199219 44.472656 26.199219 40.6875 C 26.199219 39.34375 27.179688 38.273438 28.4375 37.898438 L 28.4375 37.171875 C 28.4375 36.609375 28.890625 36.15625 29.457031 36.15625 C 30.019531 36.15625 30.476562 36.609375 30.476562 37.171875 L 30.476562 37.898438 C 31.730469 38.273438 32.710938 39.34375 32.710938 40.6875 C 32.710938 41.25 32.253906 41.703125 31.691406 41.703125 C 31.132812 41.703125 30.671875 41.246094 30.671875 40.6875 C 30.671875 39.886719 29.289062 39.457031 28.53125 40.105469 C 28.351562 40.261719 28.234375 40.46875 28.234375 40.6875 C 28.234375 42.292969 32.710938 40.722656 32.710938 44.515625 C 32.710938 45.855469 31.730469 46.925781 30.476562 47.296875 L 30.476562 48.027344 C 30.476562 48.589844 30.019531 49.046875 29.457031 49.046875 C 28.894531 49.046875 28.441406 48.585938 28.441406 48.027344 L 28.441406 47.296875 C 27.179688 46.925781 26.199219 45.855469 26.199219 44.515625 Z M 25.421875 16.953125 L 27.210938 16.953125 C 27.011719 15.800781 26.683594 14.671875 26.113281 13.738281 C 25.820312 13.257812 25.972656 12.632812 26.453125 12.339844 C 26.929688 12.046875 27.550781 12.203125 27.84375 12.679688 C 28.605469 13.925781 29.035156 15.421875 29.261719 16.953125 L 30.175781 16.953125 C 30.40625 15.421875 30.828125 13.925781 31.59375 12.679688 C 31.882812 12.199219 32.507812 12.046875 32.984375 12.339844 C 33.464844 12.632812 33.617188 13.257812 33.324219 13.738281 C 32.753906 14.671875 32.425781 15.800781 32.226562 16.953125 L 34.015625 16.953125 C 34.203125 15.753906 34.511719 14.605469 34.941406 13.496094 C 35.476562 12.121094 36.195312 10.820312 37.105469 9.589844 C 37.71875 8.6875 37.84375 7.425781 36.894531 7.265625 C 36.523438 7.199219 36.042969 7.335938 35.558594 7.730469 C 34.148438 8.871094 32.101562 8.558594 31.09375 7.078125 C 30.234375 5.816406 29.199219 5.816406 28.339844 7.078125 C 27.332031 8.558594 25.285156 8.871094 23.875 7.730469 C 23.085938 7.09375 22.105469 7.054688 21.882812 7.859375 C 21.769531 8.285156 21.878906 8.878906 22.328125 9.589844 C 23.238281 10.820312 23.957031 12.121094 24.492188 13.496094 C 24.925781 14.605469 25.234375 15.753906 25.421875 16.953125 Z M 34.914062 18.988281 L 24.527344 18.988281 C 23.847656 18.988281 23.289062 19.546875 23.289062 20.226562 C 23.289062 20.863281 23.199219 21.382812 23.652344 21.832031 C 23.875 22.058594 24.183594 22.195312 24.527344 22.195312 L 34.914062 22.195312 C 35.59375 22.195312 36.148438 21.636719 36.148438 20.957031 C 36.148438 20.316406 36.238281 19.804688 35.789062 19.351562 C 35.566406 19.128906 35.253906 18.988281 34.914062 18.988281 Z M 47.757812 41.214844 C 47.949219 41.863281 48.121094 42.515625 48.277344 43.164062 C 53.105469 39.878906 59.59375 40.476562 63.734375 44.617188 C 68.484375 49.371094 68.484375 57.074219 63.734375 61.824219 C 59.273438 66.289062 52.140625 66.605469 47.308594 62.542969 C 45.476562 61.003906 44.105469 58.9375 43.429688 56.574219 C 42.855469 56.808594 42.25 57.019531 41.617188 57.214844 C 43.363281 63.144531 48.832031 67.304688 55.128906 67.304688 C 62.910156 67.304688 69.214844 61 69.214844 53.222656 C 69.214844 45.394531 62.863281 39.136719 55.128906 39.136719 C 52.515625 39.136719 49.980469 39.847656 47.757812 41.214844 Z M 48.722656 45.367188 C 48.996094 47 49.144531 48.636719 49.144531 50.257812 C 49.144531 52.640625 47.523438 54.425781 45.296875 55.683594 C 46.410156 60.15625 50.441406 63.355469 55.128906 63.355469 C 60.722656 63.355469 65.257812 58.820312 65.257812 53.222656 C 65.257812 47.625 60.722656 43.089844 55.128906 43.089844 C 52.753906 43.089844 50.527344 43.894531 48.722656 45.367188 Z M 47.988281 15.007812 C 54.285156 15.871094 58.933594 21.289062 58.828125 27.65625 C 58.804688 28.714844 57.378906 29.039062 56.90625 28.097656 C 55.132812 24.605469 51.816406 22.179688 47.988281 21.527344 L 47.988281 22.390625 C 47.988281 23.1875 47.066406 23.75 46.320312 23.171875 L 40.367188 18.941406 C 39.777344 18.523438 39.808594 17.667969 40.382812 17.273438 L 46.382812 13 C 47.0625 12.519531 47.984375 13.03125 47.984375 13.832031 L 47.988281 13.832031 Z M 50.601562 17.851562 C 49.460938 17.339844 48.238281 17.03125 46.976562 16.945312 C 46.382812 16.933594 45.953125 16.488281 45.953125 15.929688 L 45.953125 15.800781 L 42.703125 18.109375 L 45.953125 20.421875 L 45.953125 20.378906 C 45.953125 19.789062 46.460938 19.316406 47.050781 19.363281 C 50.453125 19.628906 53.632812 21.105469 56.03125 23.488281 C 55.019531 20.988281 53.058594 18.953125 50.601562 17.851562 Z M 56.179688 50.328125 C 57.636719 50.859375 58.492188 52.414062 58.117188 53.953125 L 60.578125 55.566406 C 61.046875 55.871094 61.179688 56.5 60.875 56.972656 C 60.566406 57.441406 59.933594 57.574219 59.464844 57.269531 L 57.007812 55.660156 C 54.996094 57.214844 52.050781 55.773438 52.050781 53.222656 C 52.050781 51.886719 52.910156 50.722656 54.140625 50.308594 L 54.140625 45.625 C 54.140625 45.0625 54.597656 44.605469 55.160156 44.605469 C 55.71875 44.605469 56.179688 45.0625 56.179688 45.625 Z M 55.867188 52.484375 C 55.210938 51.835938 54.089844 52.296875 54.089844 53.222656 C 54.089844 54.148438 55.210938 54.613281 55.867188 53.957031 C 56.269531 53.554688 56.269531 52.894531 55.867188 52.484375 Z M 53.472656 37.1875 C 54.570312 37.070312 55.683594 37.070312 56.785156 37.1875 L 56.785156 35.875 L 53.472656 35.875 Z M 58.746094 32.285156 L 51.515625 32.285156 L 51.515625 33.839844 L 58.746094 33.839844 Z M 58.746094 32.285156 " fill-opacity="1" fill-rule="nonzero"/></g></svg>