<svg xmlns="http://www.w3.org/2000/svg" xmlns:xlink="http://www.w3.org/1999/xlink" width="100" zoomAndPan="magnify" viewBox="0 0 75 74.999997" height="100" preserveAspectRatio="xMidYMid meet" version="1.0"><defs><clipPath id="620a427629"><path d="M 8 4 L 67 4 L 67 71.246094 L 8 71.246094 Z M 8 4 " clip-rule="nonzero"/></clipPath></defs><g clip-path="url(#620a427629)"><path fill="#1a76d1" d="M 42.125 45.519531 L 42.125 37.386719 C 42.125 36.824219 41.671875 36.371094 41.109375 36.371094 C 40.550781 36.371094 40.09375 36.824219 40.09375 37.386719 L 40.09375 45.964844 C 40.09375 46.246094 40.210938 46.519531 40.421875 46.710938 L 48.25 53.960938 C 48.660156 54.339844 49.304688 54.316406 49.6875 53.902344 C 50.066406 53.492188 50.042969 52.851562 49.628906 52.46875 Z M 56.0625 46.980469 C 55.5625 54.4375 49.582031 60.417969 42.125 60.917969 L 42.125 58.871094 C 42.125 58.3125 41.671875 57.855469 41.109375 57.855469 C 40.550781 57.855469 40.09375 58.3125 40.09375 58.871094 L 40.09375 60.917969 C 32.636719 60.417969 26.65625 54.4375 26.15625 46.980469 L 28.203125 46.980469 C 28.761719 46.980469 29.21875 46.527344 29.21875 45.964844 C 29.21875 45.402344 28.761719 44.949219 28.203125 44.949219 L 26.15625 44.949219 C 26.65625 37.492188 32.636719 31.511719 40.09375 31.011719 L 40.09375 33.058594 C 40.09375 33.617188 40.550781 34.074219 41.109375 34.074219 C 41.671875 34.074219 42.125 33.617188 42.125 33.058594 L 42.125 31.011719 C 49.582031 31.511719 55.5625 37.492188 56.0625 44.949219 L 54.019531 44.949219 C 53.457031 44.949219 53.003906 45.402344 53.003906 45.964844 C 53.003906 46.527344 53.457031 46.980469 54.019531 46.980469 Z M 24.300781 43.269531 C 25.144531 38 28.410156 33.53125 32.917969 31.046875 C 32.394531 28.179688 31.191406 26.699219 29.527344 24.472656 C 28.265625 22.78125 26.847656 20.878906 25.785156 18.898438 L 17.710938 18.898438 C 16.414062 21.210938 14.097656 24.183594 12.394531 26.652344 C 9.824219 30.371094 9.675781 35.644531 12.28125 39.367188 C 14.757812 42.90625 20.0625 43.980469 24.300781 43.269531 Z M 17.992188 8.777344 C 18.585938 10.097656 19.195312 11.460938 19.308594 13.019531 L 24.203125 13.019531 C 24.34375 11.328125 25.238281 9.316406 25.859375 7.53125 C 25.4375 7.671875 25.019531 7.769531 24.609375 7.828125 C 21.492188 8.285156 20.773438 6.90625 18.886719 6.347656 C 18.460938 6.21875 17.882812 6.121094 17.023438 6.347656 C 17.28125 7.195312 17.640625 7.996094 17.992188 8.777344 Z M 18.679688 16.867188 L 24.855469 16.867188 C 24.628906 16.261719 24.453125 15.65625 24.335938 15.050781 L 19.191406 15.050781 C 19.082031 15.660156 18.90625 16.265625 18.679688 16.867188 Z M 39.902344 28.984375 C 40.746094 28.929688 41.472656 28.929688 42.316406 28.984375 L 42.316406 25.582031 L 39.902344 25.582031 Z M 36.394531 23.546875 L 45.824219 23.546875 L 45.824219 21.753906 L 36.394531 21.753906 Z M 58.128906 45.964844 C 58.128906 55.351562 50.496094 62.984375 41.109375 62.984375 C 31.480469 62.984375 23.738281 54.945312 24.101562 45.355469 C 19.195312 46.023438 13.457031 44.589844 10.613281 40.53125 C 7.523438 36.113281 7.671875 29.921875 10.722656 25.5 C 11.429688 24.476562 12.109375 23.53125 12.769531 22.617188 C 15.445312 18.917969 17.371094 16.246094 17.292969 13.378906 C 17.226562 11.03125 15.398438 8.8125 14.8125 5.902344 C 14.71875 5.425781 14.96875 4.953125 15.414062 4.765625 C 17.824219 3.738281 19.386719 4.160156 21.351562 5.226562 C 22.246094 5.714844 22.839844 6.035156 24.316406 5.820312 C 25.113281 5.703125 25.972656 5.375 26.933594 4.816406 C 27.683594 4.386719 28.613281 5.039062 28.4375 5.902344 C 28.1875 7.140625 27.722656 8.378906 27.277344 9.582031 C 26.746094 11.003906 26.246094 12.347656 26.21875 13.378906 C 26.105469 17.292969 30.378906 22.007812 32.789062 25.5 C 33.742188 26.886719 34.429688 28.472656 34.808594 30.152344 C 35.789062 29.761719 36.8125 29.457031 37.871094 29.253906 L 37.871094 25.582031 L 35.378906 25.582031 C 34.820312 25.582031 34.363281 25.125 34.363281 24.566406 L 34.363281 20.738281 C 34.363281 20.175781 34.820312 19.722656 35.378906 19.722656 L 46.839844 19.722656 C 47.402344 19.722656 47.855469 20.175781 47.855469 20.738281 L 47.855469 24.566406 C 47.855469 25.125 47.402344 25.582031 46.839844 25.582031 L 44.347656 25.582031 L 44.347656 29.253906 C 52.191406 30.769531 58.128906 37.6875 58.128906 45.964844 Z M 66.820312 55.882812 C 66.519531 55.410156 65.886719 55.273438 65.417969 55.578125 L 64.128906 56.40625 C 67.460938 49.078125 67.082031 40.5 63.089844 33.488281 C 61.003906 29.820312 58.003906 26.703125 54.414062 24.476562 C 53.9375 24.179688 53.3125 24.328125 53.015625 24.804688 C 52.71875 25.28125 52.863281 25.90625 53.339844 26.203125 C 60.234375 30.476562 64.347656 37.863281 64.347656 45.964844 C 64.347656 49.636719 63.496094 53.207031 61.859375 56.433594 L 61.546875 54.261719 C 61.46875 53.703125 60.953125 53.320312 60.398438 53.398438 C 59.84375 53.480469 59.457031 53.996094 59.535156 54.550781 L 60.265625 59.59375 C 60.34375 60.160156 60.875 60.550781 61.425781 60.457031 C 61.425781 60.476562 61.707031 60.382812 61.839844 60.296875 L 66.515625 57.285156 C 66.988281 56.980469 67.125 56.355469 66.820312 55.882812 Z M 56.445312 63.425781 C 56.867188 63.054688 57.507812 63.097656 57.878906 63.515625 C 58.25 63.9375 58.207031 64.582031 57.785156 64.949219 C 53.175781 69.003906 47.253906 71.234375 41.109375 71.234375 C 30.597656 71.234375 21.226562 64.730469 17.492188 54.960938 L 16.960938 56.855469 C 16.808594 57.398438 16.25 57.714844 15.710938 57.5625 C 15.167969 57.410156 14.855469 56.847656 15.003906 56.308594 L 16.46875 51.082031 C 16.65625 50.398438 17.46875 50.09375 18.046875 50.515625 L 22.140625 53.972656 C 22.570312 54.332031 22.625 54.972656 22.261719 55.402344 C 21.902344 55.832031 21.257812 55.886719 20.832031 55.523438 L 19.414062 54.324219 C 22.804688 63.230469 31.308594 69.203125 41.109375 69.203125 C 46.757812 69.203125 52.203125 67.152344 56.445312 63.425781 Z M 26.375 33.550781 C 26.328125 32.707031 25.878906 31.445312 24.167969 30.699219 C 22.367188 29.917969 21.488281 30.488281 20.210938 29.910156 C 19.308594 29.476562 19.230469 29.0625 19.21875 28.867188 C 19.222656 27.953125 20.847656 27.488281 21.773438 27.5 C 22.972656 27.539062 23.996094 27.769531 24.898438 28.214844 C 25.40625 28.457031 26.011719 28.25 26.257812 27.742188 C 26.503906 27.238281 26.292969 26.628906 25.789062 26.386719 C 24.875 25.9375 23.878906 25.65625 22.773438 25.535156 L 22.773438 25.027344 C 22.773438 24.464844 22.316406 24.011719 21.757812 24.011719 C 21.195312 24.011719 20.738281 24.46875 20.738281 25.027344 L 20.738281 25.554688 C 18.664062 25.894531 17.160156 27.214844 17.1875 28.894531 C 17.21875 31 19.53125 32.246094 21.757812 32.253906 C 22.316406 32.253906 22.847656 32.339844 23.359375 32.566406 C 24.710938 33.175781 24.605469 34.105469 23.367188 34.65625 C 21.917969 35.289062 19.921875 34.875 18.578125 34.25 C 18.066406 34.015625 17.464844 34.234375 17.226562 34.746094 C 16.992188 35.253906 17.210938 35.855469 17.71875 36.09375 C 18.675781 36.539062 19.6875 36.824219 20.738281 36.941406 L 20.738281 37.441406 C 20.738281 38.003906 21.195312 38.457031 21.757812 38.457031 C 22.316406 38.457031 22.773438 38.003906 22.773438 37.441406 L 22.773438 36.921875 C 24.847656 36.589844 26.269531 35.367188 26.375 33.683594 C 26.378906 33.636719 26.378906 33.59375 26.375 33.550781 Z M 26.375 33.550781 " fill-opacity="1" fill-rule="evenodd"/></g></svg>