<svg xmlns="http://www.w3.org/2000/svg" xmlns:xlink="http://www.w3.org/1999/xlink" width="100" zoomAndPan="magnify" viewBox="0 0 75 74.999997" height="100" preserveAspectRatio="xMidYMid meet" version="1.0"><defs><clipPath id="d8d7d31b3d"><path d="M 3.148438 3.148438 L 72 3.148438 L 72 72 L 3.148438 72 Z M 3.148438 3.148438 " clip-rule="nonzero"/></clipPath></defs><g clip-path="url(#d8d7d31b3d)"><path fill="#1a76d1" d="M 43.613281 59.121094 C 43.265625 59.308594 42.847656 59.304688 42.535156 59.136719 L 39.050781 56.96875 L 47.417969 56.96875 Z M 69.074219 50.40625 L 44.636719 68.835938 C 43.761719 69.515625 42.605469 69.726562 41.503906 69.398438 L 18.25 63.105469 C 17.820312 62.976562 17.371094 62.910156 16.921875 62.910156 C 16.910156 62.910156 16.902344 62.910156 16.890625 62.910156 L 16.890625 50.683594 L 22.324219 48.335938 C 23.761719 47.816406 25.328125 47.675781 26.851562 47.917969 L 52.402344 52.050781 C 53.042969 52.152344 53.527344 52.710938 53.527344 53.355469 C 53.527344 53.523438 53.492188 53.695312 53.429688 53.859375 C 53.359375 54.023438 53.261719 54.171875 53.152344 54.28125 C 52.890625 54.539062 52.550781 54.679688 52.199219 54.679688 L 51.773438 54.679688 C 51.773438 54.679688 51.769531 54.679688 51.765625 54.679688 L 35.035156 54.679688 C 35.027344 54.679688 35.027344 54.683594 35.023438 54.683594 L 30.632812 54.671875 C 30.632812 54.671875 30.628906 54.671875 30.628906 54.671875 C 29.996094 54.671875 29.488281 55.179688 29.484375 55.8125 C 29.480469 56.445312 29.992188 56.957031 30.625 56.960938 L 34.710938 56.976562 L 41.371094 61.105469 C 41.902344 61.402344 42.484375 61.550781 43.066406 61.550781 C 43.636719 61.550781 44.210938 61.40625 44.730469 61.121094 C 44.734375 61.117188 44.734375 61.117188 44.734375 61.117188 L 52.078125 56.96875 L 52.199219 56.96875 C 53.152344 56.96875 54.058594 56.597656 54.761719 55.914062 C 54.988281 55.683594 55.171875 55.414062 55.332031 55.132812 L 67.582031 48.207031 C 68.21875 47.855469 69.027344 48.082031 69.390625 48.722656 C 69.5 48.929688 69.554688 49.148438 69.554688 49.371094 C 69.554688 49.777344 69.367188 50.171875 69.074219 50.40625 Z M 14.597656 64.976562 C 14.597656 65.605469 14.085938 66.121094 13.453125 66.121094 L 6.585938 66.121094 C 5.953125 66.121094 5.441406 65.605469 5.441406 64.976562 L 5.441406 48.945312 C 5.441406 48.316406 5.953125 47.800781 6.585938 47.800781 L 13.453125 47.800781 C 14.085938 47.800781 14.597656 48.316406 14.597656 48.945312 L 14.597656 49.859375 C 14.597656 49.886719 14.585938 49.910156 14.585938 49.933594 L 14.597656 64.261719 Z M 36.394531 38.746094 C 36.363281 38.351562 36.351562 37.972656 36.351562 37.578125 C 36.351562 37.296875 36.367188 37 36.375 36.734375 C 36.386719 36.433594 36.40625 36.136719 36.429688 35.867188 C 36.9375 30.515625 39.625 24.441406 43.296875 20.371094 C 43.652344 19.964844 44.027344 19.574219 44.449219 19.179688 L 60.316406 19.179688 C 64.953125 23.566406 68.410156 31.386719 68.410156 37.578125 C 68.410156 40.898438 67.386719 44.070312 65.457031 46.777344 L 55.664062 52.316406 C 55.273438 51.015625 54.179688 50.015625 52.769531 49.789062 L 40.050781 47.734375 C 37.90625 45.167969 36.632812 42.074219 36.394531 38.746094 Z M 43.222656 14.597656 L 61.539062 14.597656 C 62.171875 14.597656 62.6875 15.113281 62.6875 15.742188 C 62.6875 16.375 62.171875 16.890625 61.539062 16.890625 L 43.222656 16.890625 C 42.589844 16.890625 42.078125 16.375 42.078125 15.742188 C 42.078125 15.113281 42.589844 14.597656 43.222656 14.597656 Z M 44.441406 6.707031 C 45.851562 6.261719 48.9375 5.441406 52.382812 5.441406 C 55.839844 5.441406 58.933594 6.265625 60.320312 6.707031 L 58.539062 12.308594 L 46.222656 12.308594 Z M 71.390625 47.613281 C 70.816406 46.585938 69.816406 45.960938 68.726562 45.808594 C 70.023438 43.265625 70.699219 40.46875 70.699219 37.578125 C 70.699219 31.273438 67.585938 23.726562 63.109375 18.78125 C 64.214844 18.207031 64.976562 17.066406 64.976562 15.742188 C 64.976562 13.847656 63.4375 12.308594 61.539062 12.308594 L 60.941406 12.308594 L 62.601562 7.089844 C 62.90625 6.0625 62.351562 4.980469 61.320312 4.621094 C 59.648438 4.070312 56.261719 3.148438 52.382812 3.148438 C 48.5 3.148438 45.113281 4.070312 43.417969 4.625 C 42.414062 4.980469 41.859375 6.0625 42.167969 7.117188 L 43.820312 12.308594 L 43.222656 12.308594 C 41.324219 12.308594 39.789062 13.847656 39.789062 15.742188 C 39.789062 17.066406 40.546875 18.207031 41.652344 18.78125 C 41.628906 18.808594 41.601562 18.835938 41.582031 18.855469 C 37.617188 23.25 34.699219 29.839844 34.148438 35.671875 C 34.121094 35.996094 34.097656 36.316406 34.085938 36.640625 C 34.078125 36.941406 34.0625 37.265625 34.0625 37.578125 C 34.0625 38.035156 34.078125 38.472656 34.113281 38.917969 C 34.328125 41.898438 35.257812 44.714844 36.832031 47.210938 L 27.214844 45.660156 C 25.308594 45.351562 23.351562 45.535156 21.488281 46.207031 L 16.808594 48.222656 C 16.476562 46.675781 15.101562 45.511719 13.453125 45.511719 L 6.585938 45.511719 C 4.6875 45.511719 3.148438 47.050781 3.148438 48.945312 L 3.148438 64.976562 C 3.148438 66.871094 4.6875 68.410156 6.585938 68.410156 L 13.453125 68.410156 C 15.269531 68.410156 16.746094 66.988281 16.867188 65.203125 C 17.113281 65.199219 17.363281 65.230469 17.609375 65.308594 L 40.878906 71.605469 C 41.417969 71.765625 41.980469 71.839844 42.527344 71.839844 C 43.785156 71.839844 45.023438 71.433594 46.03125 70.652344 L 70.472656 52.214844 C 71.332031 51.535156 71.84375 50.472656 71.84375 49.371094 C 71.84375 48.769531 71.6875 48.164062 71.398438 47.625 C 71.394531 47.625 71.394531 47.617188 71.390625 47.613281 " fill-opacity="1" fill-rule="nonzero"/></g><path fill="#1a76d1" d="M 11.164062 50.089844 L 8.875 50.089844 C 8.242188 50.089844 7.730469 50.605469 7.730469 51.238281 C 7.730469 51.867188 8.242188 52.382812 8.875 52.382812 L 11.164062 52.382812 C 11.796875 52.382812 12.308594 51.867188 12.308594 51.238281 C 12.308594 50.605469 11.796875 50.089844 11.164062 50.089844 " fill-opacity="1" fill-rule="nonzero"/><path fill="#1a76d1" d="M 11.164062 61.539062 L 8.875 61.539062 C 8.242188 61.539062 7.730469 62.054688 7.730469 62.6875 C 7.730469 63.316406 8.242188 63.832031 8.875 63.832031 L 11.164062 63.832031 C 11.796875 63.832031 12.308594 63.316406 12.308594 62.6875 C 12.308594 62.054688 11.796875 61.539062 11.164062 61.539062 " fill-opacity="1" fill-rule="nonzero"/><path fill="#1a76d1" d="M 48.945312 29.484375 C 48.945312 27.992188 49.910156 26.734375 51.238281 26.257812 L 51.238281 32.707031 C 49.910156 32.234375 48.945312 30.972656 48.945312 29.484375 Z M 55.816406 38.640625 C 55.816406 40.132812 54.855469 41.394531 53.527344 41.867188 L 53.527344 35.417969 C 54.855469 35.890625 55.816406 37.152344 55.816406 38.640625 Z M 53.527344 44.367188 L 53.527344 44.25 C 56.136719 43.71875 58.105469 41.40625 58.105469 38.640625 C 58.105469 35.878906 56.136719 33.566406 53.527344 33.035156 L 53.527344 26.257812 C 54.855469 26.734375 55.816406 27.992188 55.816406 29.484375 C 55.816406 30.113281 56.332031 30.628906 56.960938 30.628906 C 57.59375 30.628906 58.105469 30.113281 58.105469 29.484375 C 58.105469 26.71875 56.136719 24.40625 53.527344 23.875 L 53.527344 23.757812 C 53.527344 23.128906 53.011719 22.613281 52.382812 22.613281 C 51.75 22.613281 51.238281 23.128906 51.238281 23.757812 L 51.238281 23.875 C 48.625 24.40625 46.65625 26.71875 46.65625 29.484375 C 46.65625 32.246094 48.625 34.558594 51.238281 35.089844 L 51.238281 41.867188 C 49.910156 41.394531 48.945312 40.132812 48.945312 38.640625 C 48.945312 38.011719 48.433594 37.496094 47.800781 37.496094 C 47.171875 37.496094 46.65625 38.011719 46.65625 38.640625 C 46.65625 41.40625 48.625 43.71875 51.238281 44.25 L 51.238281 44.367188 C 51.238281 44.996094 51.75 45.511719 52.382812 45.511719 C 53.011719 45.511719 53.527344 44.996094 53.527344 44.367188 " fill-opacity="1" fill-rule="nonzero"/></svg>